<svg width="25" height="25" viewBox="0 0 25 25" fill="none" xmlns="http://www.w3.org/2000/svg">
<path opacity="0.5" d="M20.1695 10.1637C20.2578 10.1605 20.3457 10.176 20.4281 10.2092C20.5106 10.2425 20.5858 10.2928 20.6493 10.3572C20.7128 10.4216 20.7633 10.4988 20.7977 10.5841C20.8322 10.6694 20.85 10.7612 20.85 10.8539C20.85 10.9466 20.8322 11.0384 20.7977 11.1237C20.7633 11.209 20.7128 11.2862 20.6493 11.3506C20.5858 11.415 20.5106 11.4653 20.4281 11.4986C20.3457 11.5318 20.2578 11.5473 20.1695 11.5441H18.3422V12.7745H20.1695C20.2583 12.77 20.347 12.7844 20.4303 12.8169C20.5136 12.8494 20.5898 12.8994 20.6541 12.9637C20.7185 13.0281 20.7697 13.1055 20.8047 13.1913C20.8397 13.277 20.8578 13.3694 20.8578 13.4627C20.8578 13.556 20.8397 13.6483 20.8047 13.7341C20.7697 13.8199 20.7185 13.8973 20.6541 13.9616C20.5898 14.026 20.5136 14.0759 20.4303 14.1085C20.347 14.141 20.2583 14.1554 20.1695 14.1509H17.6875C17.514 14.1502 17.3478 14.0775 17.2253 13.9485C17.1027 13.8195 17.0338 13.6449 17.0336 13.4627V8.24593C17.0336 7.86616 17.3266 7.55446 17.6875 7.55446H20.1742C20.3429 7.56361 20.5018 7.64055 20.6179 7.76934C20.7341 7.89813 20.7986 8.06889 20.7981 8.24624C20.7976 8.4236 20.7321 8.59395 20.6152 8.72201C20.4984 8.85007 20.3391 8.92602 20.1703 8.93412H18.343V10.1645L20.1695 10.1637ZM16.1586 13.4619C16.1572 13.6446 16.0871 13.8193 15.9636 13.948C15.8401 14.0767 15.6732 14.149 15.4992 14.1492C15.3962 14.1503 15.2943 14.1262 15.2017 14.0788C15.1091 14.0313 15.0283 13.962 14.9656 13.8761L12.4227 10.2449V13.4611C12.4227 13.6436 12.3536 13.8186 12.2307 13.9477C12.1077 14.0767 11.941 14.1492 11.7672 14.1492C11.5933 14.1492 11.4266 14.0767 11.3037 13.9477C11.1808 13.8186 11.1117 13.6436 11.1117 13.4611V8.24429C11.1117 7.94982 11.2953 7.6857 11.5594 7.59137C11.6246 7.56719 11.6933 7.55525 11.7625 7.5561C11.9656 7.5561 12.1531 7.67176 12.2789 7.83417L14.8422 11.4736V8.24429C14.8422 7.86451 15.1352 7.55282 15.4977 7.55282C15.8602 7.55282 16.157 7.86451 16.157 8.24429L16.1586 13.4619ZM10.1773 13.4619C10.1765 13.6448 10.1067 13.82 9.98307 13.949C9.85948 14.078 9.69223 14.1503 9.51797 14.1501C9.34501 14.1485 9.1796 14.0754 9.05774 13.9465C8.93587 13.8177 8.86739 13.6435 8.86719 13.4619V8.24511C8.86719 7.86534 9.16016 7.55364 9.52266 7.55364C9.88438 7.55364 10.1781 7.86534 10.1781 8.24511L10.1773 13.4619ZM7.60938 14.1501H5.12266C4.94858 14.1496 4.78169 14.0771 4.65823 13.9483C4.53478 13.8194 4.46472 13.6446 4.46328 13.4619V8.24511C4.46328 7.86534 4.76016 7.55364 5.12266 7.55364C5.48516 7.55364 5.77812 7.86534 5.77812 8.24511V12.7737H7.60938C7.78322 12.7737 7.94994 12.8462 8.07286 12.9753C8.19579 13.1043 8.26484 13.2794 8.26484 13.4619C8.26484 13.6444 8.19579 13.8194 8.07286 13.9485C7.94994 14.0776 7.78322 14.1501 7.60938 14.1501ZM25 10.6542C25 4.78039 19.3883 0 12.5 0C5.61172 0 0 4.78039 0 10.6542C0 15.9177 4.44766 20.3265 10.4531 21.164C10.8602 21.2534 11.4133 21.4461 11.5562 21.8095C11.682 22.1376 11.6375 22.6462 11.5969 22.9931L11.4258 24.1078C11.3766 24.4368 11.1734 25.403 12.5164 24.8132C13.8633 24.2235 19.7227 20.3536 22.3469 17.1825C24.1414 15.1196 25 13.0001 25 10.6542Z" fill="#58D786"/>
</svg>
