<svg width="197" height="29" viewBox="0 0 197 29" fill="none" xmlns="http://www.w3.org/2000/svg">
<g style="mix-blend-mode:luminosity" opacity="0.85">
<g style="mix-blend-mode:luminosity" opacity="0.85">
<g style="mix-blend-mode:luminosity">
<path d="M53.88 13.88V11.42H46.02C46.22 9.56 46.24 7.72 46.26 6.08H43.66C43.64 7.72 43.66 9.54 43.46 11.42H36.18V13.88H43.06C42.28 17.32 40.38 20.64 35.8 22.68C36.5 23.18 37.2 24.04 37.58 24.7C41.82 22.66 43.98 19.54 45.06 16.2C46.62 20.06 48.94 22.98 52.56 24.68C52.94 24 53.72 22.94 54.32 22.44C50.58 20.92 48.16 17.78 46.84 13.88H53.88ZM67.54 8.54C67.26 8.3 66.9 8.02 66.5 7.74C66.88 7.4 67.22 7.02 67.5 6.64L65.94 6.18C65.74 6.46 65.48 6.72 65.22 6.98C64.8 6.74 64.38 6.52 64 6.34L62.94 7.26C63.3 7.44 63.64 7.64 64.02 7.86C63.54 8.16 63.02 8.44 62.5 8.64C62.88 8.9 63.48 9.42 63.74 9.7C64.28 9.44 64.82 9.1 65.36 8.7C65.76 9 66.14 9.28 66.4 9.54L67.54 8.54ZM60.16 12.52H62.54V12.3C62.84 12.58 63.22 12.96 63.44 13.22H60.2L60.16 12.52ZM58.76 14.94H71.6V17.32H73.96V13.22H72.48C72.64 11.36 72.8 8.82 72.9 6.72H67.9V8.22H70.58L70.54 8.88H68V10.36H70.44L70.4 11.04H67.9V12.52H70.26L70.18 13.22H63.7C64.24 12.92 64.78 12.58 65.32 12.18C65.78 12.54 66.18 12.86 66.48 13.16L67.68 12.12C67.36 11.82 66.94 11.52 66.46 11.2C66.86 10.82 67.22 10.42 67.52 10L65.96 9.54C65.74 9.82 65.46 10.12 65.18 10.38C64.74 10.14 64.32 9.9 63.92 9.7L62.82 10.64C63.18 10.84 63.56 11.06 63.94 11.3C63.52 11.58 63.02 11.82 62.54 12.06V11.04H60.08L60.04 10.36H62.5V8.88H59.96L59.92 8.3C60.86 8.1 61.88 7.84 62.66 7.54L61.68 6.16C60.62 6.54 58.84 7.08 57.64 7.28L58 13.22H56.5V17.32H58.76V14.94ZM74.22 19.2H66.74C68.1 18.52 69.46 17.7 70.56 16.9L69.22 15.68L68.72 15.8H60.02V17.46H66.44C65.72 17.9 64.96 18.34 64.24 18.62V19.2H56.14V21.08H64.24V22.44C64.24 22.68 64.14 22.74 63.82 22.74C63.52 22.76 62.32 22.76 61.38 22.72C61.66 23.28 62 24.08 62.1 24.72C63.6 24.72 64.7 24.7 65.52 24.42C66.34 24.1 66.58 23.58 66.58 22.52V21.08H74.22V19.2ZM80.74 9.32V11.34H78.7V9.32H80.74ZM78.7 19.54V17.4H80.74V19.54H78.7ZM78.7 13.34H80.74V15.4H78.7V13.34ZM82.66 7.24H76.7V23.24H78.7V21.62H82.66V7.24ZM86.38 12.38H91.28V13.98H86.38V12.38ZM91.28 8.9V10.46H86.38V8.9H91.28ZM93.22 16.24C92.62 16.88 91.7 17.66 90.84 18.26C90.52 17.56 90.26 16.84 90.02 16.04H93.6V6.86H84.06V21.2C84.06 22.14 83.54 22.68 83.12 22.94C83.48 23.34 83.98 24.28 84.16 24.8C84.62 24.5 85.36 24.2 89.28 23.2C89.2 22.7 89.16 21.72 89.18 21.04L86.38 21.66V16.04H87.98C88.88 19.94 90.46 23.02 93.36 24.68C93.7 24.02 94.44 23.08 94.96 22.62C93.7 22.02 92.66 21.1 91.86 19.98C92.76 19.4 93.84 18.62 94.76 17.92L93.22 16.24ZM109.86 10.14C109.26 9.26 107.86 8.08 106.78 7.26L105.22 8.62C106.34 9.48 107.64 10.76 108.2 11.62L109.86 10.14ZM109.3 15.38C108.64 14.52 107.16 13.28 106.02 12.48L104.5 13.84C105.66 14.74 107.06 16.02 107.68 16.9L109.3 15.38ZM104.24 16.94C103.86 16.48 102.22 14.6 101.64 14.04V13.88H104.28V11.66H101.64V8.92C102.56 8.72 103.44 8.48 104.22 8.18L102.88 6.24C101.22 6.92 98.72 7.52 96.44 7.88C96.7 8.4 97 9.18 97.08 9.72C97.82 9.64 98.56 9.52 99.34 9.4V11.66H96.32V13.88H99.02C98.3 15.82 97.18 17.96 96.06 19.24C96.42 19.84 96.94 20.82 97.16 21.5C97.94 20.5 98.68 19.08 99.34 17.54V24.74H101.64V16.62C102.12 17.42 102.6 18.26 102.84 18.82L104.24 16.94ZM115.06 19.26L114.68 17.04L112.7 17.38V6.06H110.36V17.78L103.94 18.88L104.32 21.14L110.36 20.1V24.72H112.7V19.68L115.06 19.26ZM121.96 9.76V10.46H119.66V11.58H121.7C121.4 12.06 120.8 12.52 119.64 12.82C119.98 13.06 120.34 13.46 120.56 13.8H120.14C119.44 13.8 119.3 13.54 119.3 12.86V8.02H120.74C120.48 8.64 120.02 9.24 119.46 9.74C119.78 9.9 120.38 10.24 120.64 10.44C120.84 10.24 121.06 10.02 121.24 9.76H121.96ZM117.52 12.8C117.52 14.48 118.04 15.18 120 15.18H123.98C124.76 15.18 125.6 15.16 126 15.04C125.94 14.66 125.88 14.12 125.84 13.66C125.4 13.76 124.42 13.8 123.82 13.8H120.76C121.78 13.42 122.42 12.94 122.82 12.44C123.5 12.88 124.2 13.4 124.58 13.78L125.5 12.82C125.1 12.48 124.44 12 123.76 11.58H125.6V10.46H123.44V9.76H125.28V8.7H121.9C121.98 8.54 122.04 8.4 122.1 8.24L121.18 8.02H125.92V6.66H116.84V8.02H117.52V12.8ZM121.9 21.2V22.36H129.84V21.2H121.9ZM126.66 17.78H125.36V17.16H126.66V17.78ZM130.88 19.02V19.68C130.82 19.68 130.74 19.68 130.64 19.68H129.06C128.58 19.68 128.48 19.64 128.48 19.2V19.02H130.88ZM120.6 22.9V20.06C120.92 20.42 121.26 20.9 121.42 21.22C124.04 20.86 125.12 20.14 125.34 19.02H126.66V19.2C126.66 20.44 127.08 20.76 128.78 20.76H130.88V22.9H120.6ZM123.46 19.02C123.16 19.46 122.4 19.74 120.6 19.88V19.02H123.46ZM127.42 15.64C128.48 15.34 129.5 14.96 130.4 14.46C131.4 14.88 132.34 15.3 133.04 15.64H127.42ZM135.08 17.16V15.64H133.36L134.1 14.42C133.52 14.14 132.7 13.8 131.82 13.44C132.66 12.7 133.32 11.82 133.76 10.72L132.62 10.26L132.28 10.32H127.64C128.56 9.7 128.92 8.94 129.02 8.14H130.74C130.76 9.48 131.12 10.06 132.58 10.06H133.6C133.96 10.06 134.38 10.04 134.64 9.96C134.56 9.5 134.52 8.88 134.5 8.42C134.26 8.5 133.8 8.52 133.56 8.52H132.86C132.62 8.52 132.58 8.38 132.58 8V6.56H127.26V7.58C127.26 8.26 127.02 8.86 125.48 9.42C125.74 9.6 126.2 10.08 126.5 10.46V11.66H131.24C130.9 12.08 130.5 12.42 130.06 12.76C129.06 12.38 128.1 12.04 127.24 11.74L126.44 12.88C127.06 13.12 127.74 13.38 128.4 13.66C127.64 13.94 126.8 14.18 125.92 14.34C126.22 14.66 126.62 15.22 126.82 15.64H116.5V17.16H123.56V17.78H118.46V24.7H120.6V24.12H130.88V24.7H133.1V17.78H128.48V17.16H135.08ZM143.74 20.26C143.08 21.2 142.06 22.26 141.12 22.98C141.64 23.3 142.52 23.94 142.92 24.32C143.86 23.5 145.04 22.1 145.86 20.98L143.74 20.26ZM150.42 21.22C151.34 22.2 152.54 23.58 153.14 24.38L154.98 23.26C154.32 22.44 153.04 21.14 152.14 20.22L150.42 21.22ZM150.98 16.64H145.84V15.9H150.98V16.64ZM150.98 18.72H145.84V17.96H150.98V18.72ZM141.62 9.66H146.88C146.76 10.08 146.6 10.5 146.44 10.92H142.32V12.7H145.38C145.14 13.04 144.86 13.36 144.56 13.66C144.16 13.36 143.7 13.04 143.32 12.8L142.12 13.86C142.5 14.12 142.92 14.46 143.3 14.78C142.8 15.16 142.22 15.5 141.58 15.82C141.6 15.22 141.62 14.64 141.62 14.1V9.66ZM149.18 12.7C149.52 13.34 149.94 13.94 150.4 14.5H146.54C147.04 13.92 147.46 13.32 147.84 12.7H149.18ZM153.58 12.7C153.28 13.02 152.82 13.46 152.4 13.84C152 13.48 151.64 13.1 151.34 12.7H153.58ZM153.68 12.7H155.04V10.92H148.7C148.84 10.56 148.98 10.22 149.1 9.84L147.7 9.66H155.22V7.66H148.68C148.5 7.1 148.3 6.5 148.1 5.98L145.68 6.46C145.8 6.82 145.94 7.24 146.08 7.66H139.44V13.04C139.18 12.06 138.72 10.62 138.34 9.5L136.58 10.2C137 11.48 137.48 13.2 137.68 14.22L139.44 13.42V14.1C139.44 14.6 139.44 15.12 139.42 15.64C138.28 16.22 137.2 16.76 136.42 17.08L137.08 19.22C137.78 18.84 138.48 18.42 139.2 17.98C138.92 19.84 138.32 21.7 137 23.16C137.44 23.44 138.34 24.3 138.64 24.74C140.66 22.52 141.36 19.14 141.56 16.24C141.98 16.58 142.44 17.14 142.66 17.54C143.08 17.32 143.48 17.08 143.86 16.82V20.12H147.26V22.6C147.26 22.8 147.18 22.88 146.94 22.88C146.68 22.88 145.86 22.88 145.12 22.86C145.38 23.38 145.72 24.16 145.86 24.76C147.06 24.76 147.96 24.76 148.64 24.46C149.38 24.14 149.56 23.66 149.56 22.68V20.12H153.06V16.84C153.42 17.06 153.78 17.26 154.14 17.42C154.42 16.9 155.04 16.14 155.52 15.74C154.86 15.52 154.22 15.18 153.62 14.8C154.08 14.46 154.56 14.06 154.98 13.66L153.68 12.7ZM165.82 10.66H161.78V9.82H165.82V10.66ZM165.82 13H161.78V12.2H165.82V13ZM165.82 15.42H161.78V14.54H165.82V15.42ZM159.42 17.76H161.78V17.22H174.68V15.42H168.1V14.54H173.32V13H168.1V12.2H173.3V10.66H168.1V9.82H174.2V8H168.58C168.36 7.36 167.98 6.58 167.62 5.96L165.48 6.56C165.7 7 165.92 7.5 166.1 8H162.86C163.2 7.5 163.52 7 163.82 6.5L161.4 6.04C160.5 7.76 158.88 9.82 156.66 11.4C157.2 11.7 157.96 12.46 158.34 12.96C158.7 12.66 159.06 12.36 159.42 12.04V17.76ZM175.18 20.32V18.42H167.34V17.4H164.98V18.42H157.2V20.32H162.94C161.08 21.32 158.72 22.18 156.54 22.64C157.04 23.14 157.72 24.02 158.08 24.6C160.42 23.94 163 22.74 164.98 21.32V24.7H167.34V21.22C169.32 22.64 171.86 23.84 174.2 24.5C174.5 23.94 175.18 23.06 175.68 22.6C173.58 22.14 171.3 21.32 169.52 20.32H175.18ZM187.3 15.5H189.36L188.68 15.96L188.88 16.12L187.3 16.14V15.5ZM183.22 14.5V13.92H185.36V14.5H183.22ZM183.22 12.4H185.36V12.98H183.22V12.4ZM189.42 12.4V12.98H187.3V12.4H189.42ZM189.42 14.5H187.3V13.92H189.42V14.5ZM192.12 17.84H190.92L191.98 17.06C191.6 16.6 190.96 16 190.32 15.5H191.32V11.42H187.3V10.84H191.86V9.54H187.3V8.8H185.36V9.54H180.84V10.84H185.36V11.42H181.4V15.5H185.36V16.16C183.68 16.16 182.14 16.16 180.9 16.16L180.98 17.42C183.42 17.38 186.72 17.28 190.02 17.16C190.24 17.4 190.46 17.64 190.6 17.84H189.54V17.26H187.58V17.84H180.58V19.12H183.68L182.42 19.72C182.96 20.24 183.54 21.02 183.8 21.52L185.38 20.72C185.12 20.26 184.56 19.62 184.04 19.12H187.58V20.3C187.58 20.48 187.5 20.54 187.3 20.54C187.12 20.56 186.46 20.56 185.9 20.54C186.08 20.88 186.28 21.3 186.38 21.74C187.48 21.74 188.28 21.74 188.82 21.56C189.38 21.38 189.54 21.14 189.54 20.38V19.12H192.12V17.84ZM180.18 21.98V8.52H192.56V21.98H180.18ZM178.04 6.72V24.76H180.18V23.76H192.56V24.72H194.82V6.72H178.04Z" fill="#D0D2D9"/>
</g>
<g style="mix-blend-mode:luminosity">
<g style="mix-blend-mode:luminosity">
<path d="M24.9994 14.5092C25.0664 21.4485 19.1735 27.5261 11.5138 26.9638C5.23041 26.5026 -0.512118 21.0707 0.0363545 13.4756C0.486254 7.24636 5.89768 1.50232 13.4929 2.03427C19.952 2.48788 25.0525 7.97794 24.9994 14.5092ZM6.51187 13.7232C6.50934 16.0494 6.98831 17.6655 7.993 18.8936C10.0175 21.3638 12.6778 22.0929 15.7487 21.5774C16.7521 21.4093 16.7938 21.3499 17.0011 20.3075C17.202 19.298 17.2096 19.3258 16.2226 19.5936C13.8354 20.2418 11.7325 19.6796 9.91012 18.0281C9.78375 17.9131 9.55121 17.7994 9.66116 17.5732C9.74583 17.4001 9.96067 17.4709 10.1224 17.4481C10.1844 17.4393 10.2488 17.4481 10.312 17.4406C12.9495 17.1247 15.0043 15.8409 16.3528 13.5716C17.3752 11.8507 16.9291 9.68372 15.4315 8.2635C14.0123 6.91657 11.8298 6.68914 10.1186 7.79347C7.74909 9.32487 6.5978 11.5588 6.51187 13.7232Z" fill="#D0D2D9"/>
<path d="M8.73543 14.4614C8.75312 12.6647 9.45577 11.1573 10.712 9.90513C11.6825 8.93726 13.0006 8.86271 13.9573 9.67769C15.0024 10.5697 15.1882 11.8838 14.3187 12.9932C13.0436 14.6219 11.3072 15.428 9.25736 15.586C8.89087 15.6138 8.69625 15.49 8.7329 15.0907C8.75186 14.8835 8.73543 14.6724 8.73543 14.4614Z" fill="#D0D2D9"/>
</g>
</g>
</g>
</g>
</svg>
